<svg width="158" height="36" viewBox="0 0 158 36" fill="none" xmlns="http://www.w3.org/2000/svg">
    <path d="M50.0077 22.2382L63.1934 5.30766V5.16961H51.3925C51.2424 5.16469 51.0998 5.10285 50.9936 4.99665C50.8874 4.89044 50.8255 4.74782 50.8206 4.5977V2.8754C50.8255 2.72528 50.8874 2.58266 50.9936 2.47645C51.0998 2.37025 51.2424 2.30841 51.3925 2.30349H67.8749C68.0251 2.30841 68.1677 2.37025 68.2739 2.47645C68.3801 2.58266 68.4419 2.72528 68.4468 2.8754V3.26982L55.2392 20.4622V20.494H67.0719C67.3874 20.494 67.6438 20.7503 67.6438 21.0659V22.7816C67.6438 22.9333 67.5835 23.0788 67.4763 23.186C67.369 23.2933 67.2235 23.3535 67.0719 23.3535H50.5719C50.4218 23.3486 50.2792 23.2868 50.173 23.1806C50.0668 23.0743 50.0049 22.9317 50 22.7816V22.2371H50.0077V22.2382ZM74.4541 2.8754C74.459 2.72528 74.5209 2.58266 74.6271 2.47645C74.7333 2.37025 74.8759 2.30841 75.026 2.30349H76.9981C77.1482 2.30841 77.2908 2.37025 77.3971 2.47645C77.5033 2.58266 77.5651 2.72528 77.57 2.8754V22.7772C77.5651 22.9273 77.5033 23.07 77.3971 23.1762C77.2908 23.2824 77.1482 23.3442 76.9981 23.3491H75.026C74.8759 23.3442 74.7333 23.2824 74.6271 23.1762C74.5209 23.07 74.459 22.9273 74.4541 22.7772V2.8754ZM86.4204 2.8754C86.4204 2.55986 86.6768 2.30349 86.9923 2.30349H93.8476C94.7281 2.3014 95.6004 2.47277 96.4147 2.80781C97.229 3.14284 97.9694 3.63499 98.5935 4.25615C99.2176 4.8773 99.7132 5.6153 100.052 6.42801C100.391 7.24072 100.567 8.11222 100.569 8.99276C100.571 9.87329 100.399 10.7456 100.064 11.5599C99.7292 12.3742 99.2371 13.1146 98.6159 13.7387C97.9948 14.3628 97.2568 14.8584 96.4441 15.1973C95.6314 15.5362 94.7599 15.7117 93.8793 15.7138H89.5166V22.7772C89.5117 22.9273 89.4498 23.07 89.3436 23.1762C89.2374 23.2824 89.0948 23.3442 88.9447 23.3491H86.9726C86.8209 23.3491 86.6754 23.2889 86.5682 23.1816C86.4609 23.0744 86.4007 22.9289 86.4007 22.7772V2.8754H86.4204ZM93.6668 12.7677C94.1703 12.766 94.6686 12.665 95.1331 12.4705C95.5976 12.276 96.0191 11.9918 96.3737 11.6342C96.7282 11.2766 97.0088 10.8526 97.1993 10.3865C97.3898 9.92038 97.4865 9.42126 97.4839 8.91771C97.4711 8.42982 97.3622 7.94926 97.1633 7.50358C96.9643 7.0579 96.6794 6.65588 96.3248 6.32059C95.9701 5.98529 95.5528 5.72331 95.0967 5.54967C94.6405 5.37604 94.1546 5.29417 93.6668 5.30875H89.5166V12.7677H93.6668ZM107.285 2.8754C107.285 2.55986 107.542 2.30349 107.857 2.30349H114.712C116.491 2.29927 118.198 3.00167 119.458 4.25615C120.719 5.51063 121.429 7.21444 121.433 8.99276C121.438 10.7711 120.735 12.4782 119.481 13.7387C118.226 14.9991 116.523 15.7096 114.744 15.7138H110.386V22.7772C110.381 22.9273 110.319 23.07 110.213 23.1762C110.107 23.2824 109.964 23.3442 109.814 23.3491H107.842C107.69 23.3491 107.545 23.2889 107.437 23.1816C107.33 23.0744 107.27 22.9289 107.27 22.7772V2.8754H107.285ZM114.532 12.7677C115.035 12.766 115.533 12.665 115.998 12.4705C116.462 12.276 116.884 11.9918 117.239 11.6342C117.593 11.2766 117.874 10.8526 118.064 10.3865C118.255 9.92038 118.351 9.42126 118.349 8.91771C118.336 8.42982 118.227 7.94926 118.028 7.50358C117.829 7.0579 117.544 6.65588 117.19 6.32059C116.835 5.98529 116.418 5.72331 115.962 5.54967C115.505 5.37604 115.019 5.29417 114.532 5.30875H110.386V12.7677H114.535H114.532ZM128.155 2.8754C128.159 2.72528 128.221 2.58266 128.327 2.47645C128.434 2.37025 128.576 2.30841 128.726 2.30349H130.699C130.849 2.30841 130.991 2.37025 131.097 2.47645C131.204 2.58266 131.266 2.72528 131.27 2.8754V22.7772C131.266 22.9273 131.204 23.07 131.097 23.1762C130.991 23.2824 130.849 23.3442 130.699 23.3491H128.726C128.576 23.3442 128.434 23.2824 128.327 23.1762C128.221 23.07 128.159 22.9273 128.155 22.7772V2.8754ZM137.293 22.5691L146.527 2.33088C146.582 2.24086 146.657 2.1644 146.746 2.10714C146.834 2.04987 146.935 2.01326 147.04 2H147.339C147.443 2.01326 147.544 2.04987 147.633 2.10714C147.721 2.1644 147.796 2.24086 147.851 2.33088L157.022 22.5691C157.069 22.6536 157.092 22.7494 157.088 22.846C157.085 22.9427 157.055 23.0366 157.003 23.1177C156.95 23.1988 156.876 23.264 156.789 23.3063C156.702 23.3487 156.605 23.3665 156.509 23.3579H154.616C154.464 23.3681 154.314 23.329 154.187 23.2465C154.059 23.1639 153.962 23.0423 153.91 22.8999L152.056 18.7826H142.223C141.624 20.1664 140.989 21.5195 140.389 22.8999C140.331 23.0316 140.236 23.1438 140.116 23.2234C139.995 23.3029 139.855 23.3466 139.711 23.3491H137.818C137.722 23.3591 137.625 23.3427 137.537 23.3018C137.45 23.2609 137.375 23.1969 137.321 23.1167C137.267 23.0366 137.236 22.9433 137.231 22.8468C137.226 22.7503 137.248 22.6543 137.293 22.5691ZM150.917 16.1948L147.205 7.95576H147.055L143.387 16.1948H150.916H150.917Z" fill="white"/>
    <mask id="path-2-outside-1" maskUnits="userSpaceOnUse" x="49" y="27.1147" width="65" height="7" fill="black">
        <rect fill="white" x="49" y="27.1147" width="65" height="7"/>
        <path d="M51.3661 28.8952H50.1424C50.1046 28.8952 50.0684 28.8802 50.0417 28.8535C50.015 28.8268 50 28.7905 50 28.7528V28.3474C50 28.3096 50.015 28.2734 50.0417 28.2467C50.0684 28.22 50.1046 28.205 50.1424 28.205H53.3688C53.4066 28.205 53.4428 28.22 53.4695 28.2467C53.4962 28.2734 53.5112 28.3096 53.5112 28.3474V28.7418C53.5112 28.7796 53.4962 28.8158 53.4695 28.8425C53.4428 28.8692 53.4066 28.8842 53.3688 28.8842H52.1473V33.3047C52.1464 33.3422 52.1311 33.378 52.1046 33.4045C52.0781 33.431 52.0424 33.4463 52.0048 33.4472H51.5075C51.47 33.4463 51.4342 33.431 51.4077 33.4045C51.3812 33.378 51.3659 33.3422 51.365 33.3047V28.8952H51.3661ZM56.5722 28.3474C56.573 28.3099 56.5883 28.2742 56.6148 28.2476C56.6413 28.2211 56.6771 28.2058 56.7146 28.205H57.2109C57.2486 28.205 57.2848 28.22 57.3116 28.2467C57.3383 28.2734 57.3533 28.3096 57.3533 28.3474V30.4421H60.114V28.3474C60.114 28.3098 60.1289 28.2738 60.1554 28.2471C60.1818 28.2204 60.2178 28.2053 60.2554 28.205H60.7527C60.8294 28.2072 60.8919 28.2707 60.8952 28.3474V33.3168C60.8943 33.3543 60.879 33.39 60.8525 33.4166C60.826 33.4431 60.7902 33.4584 60.7527 33.4592H60.2554C60.2176 33.4592 60.1814 33.4442 60.1547 33.4175C60.1279 33.3908 60.1129 33.3546 60.1129 33.3168V31.1476H57.3522V33.3168C57.3522 33.3546 57.3372 33.3908 57.3105 33.4175C57.2838 33.4442 57.2475 33.4592 57.2098 33.4592H56.7135C56.676 33.4584 56.6402 33.4431 56.6137 33.4166C56.5872 33.39 56.5719 33.3543 56.5711 33.3168V28.3474H56.5722ZM63.955 28.3474C63.955 28.3096 63.97 28.2734 63.9967 28.2467C64.0234 28.22 64.0597 28.205 64.0974 28.205H67.0981C67.1359 28.205 67.1721 28.22 67.1988 28.2467C67.2255 28.2734 67.2405 28.3096 67.2405 28.3474V28.7418C67.2405 28.7796 67.2255 28.8158 67.1988 28.8425C67.1721 28.8692 67.1359 28.8842 67.0981 28.8842H64.7317V30.4136H66.7355C66.8122 30.4158 66.8746 30.4793 66.8779 30.556V30.9899C66.8779 31.0276 66.8629 31.0639 66.8362 31.0906C66.8095 31.1173 66.7733 31.1323 66.7355 31.1323H64.7306V32.7449H67.097C67.1348 32.7449 67.171 32.7599 67.1977 32.7866C67.2244 32.8133 67.2394 32.8496 67.2394 32.8873V33.2817C67.2394 33.3195 67.2244 33.3557 67.1977 33.3824C67.171 33.4091 67.1348 33.4241 67.097 33.4241H64.0963C64.0776 33.4241 64.0591 33.4205 64.0418 33.4133C64.0245 33.4061 64.0088 33.3957 63.9956 33.3824C63.9824 33.3692 63.9719 33.3535 63.9647 33.3362C63.9576 33.319 63.9539 33.3004 63.9539 33.2817V28.3474H63.955ZM77.05 28.1152C77.7247 28.1032 78.3778 28.3534 78.8719 28.813C78.8868 28.826 78.8987 28.842 78.9069 28.8599C78.915 28.8779 78.9192 28.8974 78.9192 28.9171C78.9192 28.9368 78.915 28.9563 78.9069 28.9743C78.8987 28.9922 78.8868 29.0082 78.8719 29.0212L78.541 29.3608C78.5314 29.3774 78.5176 29.3912 78.501 29.4007C78.4843 29.4103 78.4655 29.4154 78.4463 29.4154C78.4271 29.4154 78.4082 29.4103 78.3916 29.4007C78.375 29.3912 78.3611 29.3774 78.3515 29.3608C77.9913 29.0468 77.5321 28.8696 77.0544 28.8601C76.5376 28.8601 76.042 29.0654 75.6766 29.4308C75.3112 29.7962 75.106 30.2918 75.106 30.8085C75.106 31.3253 75.3112 31.8209 75.6766 32.1863C76.042 32.5517 76.5376 32.757 77.0544 32.757C77.5288 32.7482 77.9856 32.5729 78.3438 32.2596C78.369 32.2376 78.4013 32.2254 78.4348 32.2254C78.4682 32.2254 78.5005 32.2376 78.5257 32.2596L78.8719 32.5915C78.8983 32.6182 78.9131 32.6542 78.9131 32.6918C78.9131 32.7293 78.8983 32.7654 78.8719 32.792C78.3848 33.2662 77.7298 33.5285 77.05 33.5217C76.3425 33.5074 75.6687 33.2163 75.1734 32.7109C74.6781 32.2055 74.4006 31.5261 74.4006 30.8184C74.4006 30.1107 74.6781 29.4313 75.1734 28.9259C75.6687 28.4205 76.3425 28.1294 77.05 28.1152ZM81.9909 33.25L84.2948 28.1973C84.3085 28.1752 84.3269 28.1564 84.3487 28.1422C84.3704 28.128 84.3951 28.1188 84.4208 28.1152H84.4953C84.5479 28.1217 84.5939 28.1524 84.6224 28.1973L86.9132 33.25C86.9235 33.2708 86.9282 33.294 86.9268 33.3172C86.9254 33.3404 86.918 33.3629 86.9053 33.3824C86.8925 33.4018 86.875 33.4177 86.8542 33.4283C86.8335 33.4388 86.8104 33.4439 86.7872 33.4428H86.3139C86.2766 33.445 86.2396 33.4351 86.2084 33.4146C86.1772 33.394 86.1535 33.364 86.1408 33.3288L85.6752 32.2914H83.2376C83.0875 32.6386 82.9309 32.9739 82.7797 33.3212C82.765 33.3549 82.7408 33.3837 82.7101 33.4039C82.6794 33.4241 82.6434 33.435 82.6066 33.4351H82.1333C82.1096 33.4387 82.0854 33.4359 82.0631 33.427C82.0409 33.418 82.0215 33.4032 82.0069 33.3842C81.9924 33.3651 81.9832 33.3425 81.9804 33.3187C81.9776 33.2949 81.9812 33.2708 81.9909 33.2489V33.25ZM85.3915 31.6724L84.4679 29.6171H84.4208L83.5137 31.6603H85.3915V31.6713V31.6724ZM89.9873 28.3474C89.9873 28.3096 90.0023 28.2734 90.029 28.2467C90.0557 28.22 90.0919 28.205 90.1297 28.205H92.1729C92.3858 28.203 92.597 28.2429 92.7945 28.3225C92.992 28.4021 93.1719 28.5199 93.3239 28.669C93.4759 28.8182 93.597 28.9958 93.6803 29.1917C93.7637 29.3877 93.8076 29.5981 93.8096 29.8111C93.7972 30.1454 93.6844 30.4682 93.4858 30.7375C93.2873 31.0068 93.0122 31.21 92.6965 31.3207L93.7263 33.227C93.7395 33.2488 93.7466 33.2739 93.7467 33.2994C93.7469 33.325 93.7402 33.3501 93.7273 33.3722C93.7144 33.3943 93.6958 33.4125 93.6735 33.4249C93.6512 33.4373 93.6259 33.4435 93.6003 33.4428H93.012C92.9882 33.4428 92.9648 33.4366 92.9441 33.4249C92.9234 33.4132 92.906 33.3963 92.8937 33.3759L91.8968 31.404H90.764V33.3168C90.7632 33.3543 90.7479 33.39 90.7213 33.4166C90.6948 33.4431 90.6591 33.4584 90.6216 33.4592H90.133C90.0952 33.4592 90.059 33.4442 90.0322 33.4175C90.0055 33.3908 89.9905 33.3546 89.9905 33.3168V28.3474H89.9873ZM92.1126 30.7576C92.3569 30.7536 92.5898 30.6537 92.7612 30.4795C92.9325 30.3053 93.0285 30.0707 93.0285 29.8264C93.0214 29.5881 92.922 29.362 92.7513 29.1956C92.5807 29.0292 92.352 28.9356 92.1137 28.9346H90.7771V30.7576H92.1137H92.1126ZM96.8848 28.3474C96.8848 28.3096 96.8998 28.2734 96.9265 28.2467C96.9532 28.22 96.9894 28.205 97.0272 28.205H100.029C100.066 28.2061 100.101 28.2216 100.127 28.2482C100.153 28.2748 100.167 28.3104 100.167 28.3474V28.7418C100.167 28.7796 100.152 28.8158 100.125 28.8425C100.099 28.8692 100.062 28.8842 100.025 28.8842H97.6582V30.4136H99.662C99.7387 30.4158 99.8022 30.4793 99.8044 30.556V30.9899C99.8044 31.0276 99.7894 31.0639 99.7627 31.0906C99.736 31.1173 99.6997 31.1323 99.662 31.1323H97.6582V32.7449H100.025C100.062 32.7449 100.099 32.7599 100.125 32.7866C100.152 32.8133 100.167 32.8496 100.167 32.8873V33.2817C100.167 33.3195 100.152 33.3557 100.125 33.3824C100.099 33.4091 100.062 33.4241 100.025 33.4241H97.0119C96.9741 33.4241 96.9379 33.4091 96.9112 33.3824C96.8844 33.3557 96.8694 33.3195 96.8694 33.2817V28.3474H96.8848ZM103.227 28.3474C103.227 28.3096 103.242 28.2734 103.269 28.2467C103.295 28.22 103.332 28.205 103.369 28.205H106.371C106.409 28.2053 106.445 28.2204 106.471 28.2471C106.498 28.2738 106.512 28.3098 106.512 28.3474V28.7418C106.512 28.7796 106.497 28.8158 106.471 28.8425C106.444 28.8692 106.408 28.8842 106.37 28.8842H104.004V30.4136H106.008C106.085 30.4158 106.148 30.4793 106.15 30.556V30.9899C106.15 31.0276 106.135 31.0639 106.108 31.0906C106.081 31.1173 106.045 31.1323 106.007 31.1323H104.004V32.7449H106.37C106.408 32.7449 106.444 32.7599 106.471 32.7866C106.497 32.8133 106.512 32.8496 106.512 32.8873V33.2817C106.512 33.3195 106.497 33.3557 106.471 33.3824C106.444 33.4091 106.408 33.4241 106.37 33.4241H103.368C103.331 33.4239 103.295 33.4087 103.268 33.382C103.242 33.3554 103.227 33.3193 103.227 33.2817V28.3474ZM109.572 28.3474C109.572 28.3096 109.587 28.2734 109.614 28.2467C109.641 28.22 109.677 28.205 109.715 28.205H111.758C111.971 28.203 112.182 28.2429 112.38 28.3225C112.577 28.4021 112.757 28.5199 112.909 28.669C113.061 28.8182 113.182 28.9958 113.265 29.1917C113.349 29.3877 113.393 29.5981 113.395 29.8111C113.385 30.1475 113.273 30.4732 113.075 30.745C112.876 31.0169 112.6 31.2222 112.283 31.3339L113.312 33.2379C113.326 33.2599 113.333 33.2852 113.334 33.311C113.334 33.3368 113.327 33.3622 113.314 33.3845C113.301 33.4068 113.282 33.4251 113.259 33.4375C113.237 33.4499 113.211 33.4559 113.185 33.4548H112.601C112.578 33.4548 112.554 33.4487 112.533 33.437C112.513 33.4253 112.495 33.4084 112.483 33.388L111.486 31.416H110.353V33.3288C110.353 33.3663 110.337 33.4021 110.311 33.4286C110.284 33.4551 110.248 33.4704 110.211 33.4713H109.722C109.685 33.4713 109.648 33.4563 109.622 33.4295C109.595 33.4028 109.58 33.3666 109.58 33.3288V28.3474H109.572ZM111.698 30.7576C111.942 30.7536 112.175 30.6537 112.346 30.4795C112.517 30.3053 112.613 30.0707 112.613 29.8264C112.606 29.5881 112.507 29.362 112.336 29.1956C112.166 29.0292 111.937 28.9356 111.699 28.9346H110.362V30.7576H111.699H111.698Z"/>
    </mask>
    <path d="M51.3661 28.8952H50.1424C50.1046 28.8952 50.0684 28.8802 50.0417 28.8535C50.015 28.8268 50 28.7905 50 28.7528V28.3474C50 28.3096 50.015 28.2734 50.0417 28.2467C50.0684 28.22 50.1046 28.205 50.1424 28.205H53.3688C53.4066 28.205 53.4428 28.22 53.4695 28.2467C53.4962 28.2734 53.5112 28.3096 53.5112 28.3474V28.7418C53.5112 28.7796 53.4962 28.8158 53.4695 28.8425C53.4428 28.8692 53.4066 28.8842 53.3688 28.8842H52.1473V33.3047C52.1464 33.3422 52.1311 33.378 52.1046 33.4045C52.0781 33.431 52.0424 33.4463 52.0048 33.4472H51.5075C51.47 33.4463 51.4342 33.431 51.4077 33.4045C51.3812 33.378 51.3659 33.3422 51.365 33.3047V28.8952H51.3661ZM56.5722 28.3474C56.573 28.3099 56.5883 28.2742 56.6148 28.2476C56.6413 28.2211 56.6771 28.2058 56.7146 28.205H57.2109C57.2486 28.205 57.2848 28.22 57.3116 28.2467C57.3383 28.2734 57.3533 28.3096 57.3533 28.3474V30.4421H60.114V28.3474C60.114 28.3098 60.1289 28.2738 60.1554 28.2471C60.1818 28.2204 60.2178 28.2053 60.2554 28.205H60.7527C60.8294 28.2072 60.8919 28.2707 60.8952 28.3474V33.3168C60.8943 33.3543 60.879 33.39 60.8525 33.4166C60.826 33.4431 60.7902 33.4584 60.7527 33.4592H60.2554C60.2176 33.4592 60.1814 33.4442 60.1547 33.4175C60.1279 33.3908 60.1129 33.3546 60.1129 33.3168V31.1476H57.3522V33.3168C57.3522 33.3546 57.3372 33.3908 57.3105 33.4175C57.2838 33.4442 57.2475 33.4592 57.2098 33.4592H56.7135C56.676 33.4584 56.6402 33.4431 56.6137 33.4166C56.5872 33.39 56.5719 33.3543 56.5711 33.3168V28.3474H56.5722ZM63.955 28.3474C63.955 28.3096 63.97 28.2734 63.9967 28.2467C64.0234 28.22 64.0597 28.205 64.0974 28.205H67.0981C67.1359 28.205 67.1721 28.22 67.1988 28.2467C67.2255 28.2734 67.2405 28.3096 67.2405 28.3474V28.7418C67.2405 28.7796 67.2255 28.8158 67.1988 28.8425C67.1721 28.8692 67.1359 28.8842 67.0981 28.8842H64.7317V30.4136H66.7355C66.8122 30.4158 66.8746 30.4793 66.8779 30.556V30.9899C66.8779 31.0276 66.8629 31.0639 66.8362 31.0906C66.8095 31.1173 66.7733 31.1323 66.7355 31.1323H64.7306V32.7449H67.097C67.1348 32.7449 67.171 32.7599 67.1977 32.7866C67.2244 32.8133 67.2394 32.8496 67.2394 32.8873V33.2817C67.2394 33.3195 67.2244 33.3557 67.1977 33.3824C67.171 33.4091 67.1348 33.4241 67.097 33.4241H64.0963C64.0776 33.4241 64.0591 33.4205 64.0418 33.4133C64.0245 33.4061 64.0088 33.3957 63.9956 33.3824C63.9824 33.3692 63.9719 33.3535 63.9647 33.3362C63.9576 33.319 63.9539 33.3004 63.9539 33.2817V28.3474H63.955ZM77.05 28.1152C77.7247 28.1032 78.3778 28.3534 78.8719 28.813C78.8868 28.826 78.8987 28.842 78.9069 28.8599C78.915 28.8779 78.9192 28.8974 78.9192 28.9171C78.9192 28.9368 78.915 28.9563 78.9069 28.9743C78.8987 28.9922 78.8868 29.0082 78.8719 29.0212L78.541 29.3608C78.5314 29.3774 78.5176 29.3912 78.501 29.4007C78.4843 29.4103 78.4655 29.4154 78.4463 29.4154C78.4271 29.4154 78.4082 29.4103 78.3916 29.4007C78.375 29.3912 78.3611 29.3774 78.3515 29.3608C77.9913 29.0468 77.5321 28.8696 77.0544 28.8601C76.5376 28.8601 76.042 29.0654 75.6766 29.4308C75.3112 29.7962 75.106 30.2918 75.106 30.8085C75.106 31.3253 75.3112 31.8209 75.6766 32.1863C76.042 32.5517 76.5376 32.757 77.0544 32.757C77.5288 32.7482 77.9856 32.5729 78.3438 32.2596C78.369 32.2376 78.4013 32.2254 78.4348 32.2254C78.4682 32.2254 78.5005 32.2376 78.5257 32.2596L78.8719 32.5915C78.8983 32.6182 78.9131 32.6542 78.9131 32.6918C78.9131 32.7293 78.8983 32.7654 78.8719 32.792C78.3848 33.2662 77.7298 33.5285 77.05 33.5217C76.3425 33.5074 75.6687 33.2163 75.1734 32.7109C74.6781 32.2055 74.4006 31.5261 74.4006 30.8184C74.4006 30.1107 74.6781 29.4313 75.1734 28.9259C75.6687 28.4205 76.3425 28.1294 77.05 28.1152ZM81.9909 33.25L84.2948 28.1973C84.3085 28.1752 84.3269 28.1564 84.3487 28.1422C84.3704 28.128 84.3951 28.1188 84.4208 28.1152H84.4953C84.5479 28.1217 84.5939 28.1524 84.6224 28.1973L86.9132 33.25C86.9235 33.2708 86.9282 33.294 86.9268 33.3172C86.9254 33.3404 86.918 33.3629 86.9053 33.3824C86.8925 33.4018 86.875 33.4177 86.8542 33.4283C86.8335 33.4388 86.8104 33.4439 86.7872 33.4428H86.3139C86.2766 33.445 86.2396 33.4351 86.2084 33.4146C86.1772 33.394 86.1535 33.364 86.1408 33.3288L85.6752 32.2914H83.2376C83.0875 32.6386 82.9309 32.9739 82.7797 33.3212C82.765 33.3549 82.7408 33.3837 82.7101 33.4039C82.6794 33.4241 82.6434 33.435 82.6066 33.4351H82.1333C82.1096 33.4387 82.0854 33.4359 82.0631 33.427C82.0409 33.418 82.0215 33.4032 82.0069 33.3842C81.9924 33.3651 81.9832 33.3425 81.9804 33.3187C81.9776 33.2949 81.9812 33.2708 81.9909 33.2489V33.25ZM85.3915 31.6724L84.4679 29.6171H84.4208L83.5137 31.6603H85.3915V31.6713V31.6724ZM89.9873 28.3474C89.9873 28.3096 90.0023 28.2734 90.029 28.2467C90.0557 28.22 90.0919 28.205 90.1297 28.205H92.1729C92.3858 28.203 92.597 28.2429 92.7945 28.3225C92.992 28.4021 93.1719 28.5199 93.3239 28.669C93.4759 28.8182 93.597 28.9958 93.6803 29.1917C93.7637 29.3877 93.8076 29.5981 93.8096 29.8111C93.7972 30.1454 93.6844 30.4682 93.4858 30.7375C93.2873 31.0068 93.0122 31.21 92.6965 31.3207L93.7263 33.227C93.7395 33.2488 93.7466 33.2739 93.7467 33.2994C93.7469 33.325 93.7402 33.3501 93.7273 33.3722C93.7144 33.3943 93.6958 33.4125 93.6735 33.4249C93.6512 33.4373 93.6259 33.4435 93.6003 33.4428H93.012C92.9882 33.4428 92.9648 33.4366 92.9441 33.4249C92.9234 33.4132 92.906 33.3963 92.8937 33.3759L91.8968 31.404H90.764V33.3168C90.7632 33.3543 90.7479 33.39 90.7213 33.4166C90.6948 33.4431 90.6591 33.4584 90.6216 33.4592H90.133C90.0952 33.4592 90.059 33.4442 90.0322 33.4175C90.0055 33.3908 89.9905 33.3546 89.9905 33.3168V28.3474H89.9873ZM92.1126 30.7576C92.3569 30.7536 92.5898 30.6537 92.7612 30.4795C92.9325 30.3053 93.0285 30.0707 93.0285 29.8264C93.0214 29.5881 92.922 29.362 92.7513 29.1956C92.5807 29.0292 92.352 28.9356 92.1137 28.9346H90.7771V30.7576H92.1137H92.1126ZM96.8848 28.3474C96.8848 28.3096 96.8998 28.2734 96.9265 28.2467C96.9532 28.22 96.9894 28.205 97.0272 28.205H100.029C100.066 28.2061 100.101 28.2216 100.127 28.2482C100.153 28.2748 100.167 28.3104 100.167 28.3474V28.7418C100.167 28.7796 100.152 28.8158 100.125 28.8425C100.099 28.8692 100.062 28.8842 100.025 28.8842H97.6582V30.4136H99.662C99.7387 30.4158 99.8022 30.4793 99.8044 30.556V30.9899C99.8044 31.0276 99.7894 31.0639 99.7627 31.0906C99.736 31.1173 99.6997 31.1323 99.662 31.1323H97.6582V32.7449H100.025C100.062 32.7449 100.099 32.7599 100.125 32.7866C100.152 32.8133 100.167 32.8496 100.167 32.8873V33.2817C100.167 33.3195 100.152 33.3557 100.125 33.3824C100.099 33.4091 100.062 33.4241 100.025 33.4241H97.0119C96.9741 33.4241 96.9379 33.4091 96.9112 33.3824C96.8844 33.3557 96.8694 33.3195 96.8694 33.2817V28.3474H96.8848ZM103.227 28.3474C103.227 28.3096 103.242 28.2734 103.269 28.2467C103.295 28.22 103.332 28.205 103.369 28.205H106.371C106.409 28.2053 106.445 28.2204 106.471 28.2471C106.498 28.2738 106.512 28.3098 106.512 28.3474V28.7418C106.512 28.7796 106.497 28.8158 106.471 28.8425C106.444 28.8692 106.408 28.8842 106.37 28.8842H104.004V30.4136H106.008C106.085 30.4158 106.148 30.4793 106.15 30.556V30.9899C106.15 31.0276 106.135 31.0639 106.108 31.0906C106.081 31.1173 106.045 31.1323 106.007 31.1323H104.004V32.7449H106.37C106.408 32.7449 106.444 32.7599 106.471 32.7866C106.497 32.8133 106.512 32.8496 106.512 32.8873V33.2817C106.512 33.3195 106.497 33.3557 106.471 33.3824C106.444 33.4091 106.408 33.4241 106.37 33.4241H103.368C103.331 33.4239 103.295 33.4087 103.268 33.382C103.242 33.3554 103.227 33.3193 103.227 33.2817V28.3474ZM109.572 28.3474C109.572 28.3096 109.587 28.2734 109.614 28.2467C109.641 28.22 109.677 28.205 109.715 28.205H111.758C111.971 28.203 112.182 28.2429 112.38 28.3225C112.577 28.4021 112.757 28.5199 112.909 28.669C113.061 28.8182 113.182 28.9958 113.265 29.1917C113.349 29.3877 113.393 29.5981 113.395 29.8111C113.385 30.1475 113.273 30.4732 113.075 30.745C112.876 31.0169 112.6 31.2222 112.283 31.3339L113.312 33.2379C113.326 33.2599 113.333 33.2852 113.334 33.311C113.334 33.3368 113.327 33.3622 113.314 33.3845C113.301 33.4068 113.282 33.4251 113.259 33.4375C113.237 33.4499 113.211 33.4559 113.185 33.4548H112.601C112.578 33.4548 112.554 33.4487 112.533 33.437C112.513 33.4253 112.495 33.4084 112.483 33.388L111.486 31.416H110.353V33.3288C110.353 33.3663 110.337 33.4021 110.311 33.4286C110.284 33.4551 110.248 33.4704 110.211 33.4713H109.722C109.685 33.4713 109.648 33.4563 109.622 33.4295C109.595 33.4028 109.58 33.3666 109.58 33.3288V28.3474H109.572ZM111.698 30.7576C111.942 30.7536 112.175 30.6537 112.346 30.4795C112.517 30.3053 112.613 30.0707 112.613 29.8264C112.606 29.5881 112.507 29.362 112.336 29.1956C112.166 29.0292 111.937 28.9356 111.699 28.9346H110.362V30.7576H111.699H111.698Z" fill="white"/>
    <path d="M51.3661 28.8952H50.1424C50.1046 28.8952 50.0684 28.8802 50.0417 28.8535C50.015 28.8268 50 28.7905 50 28.7528V28.3474C50 28.3096 50.015 28.2734 50.0417 28.2467C50.0684 28.22 50.1046 28.205 50.1424 28.205H53.3688C53.4066 28.205 53.4428 28.22 53.4695 28.2467C53.4962 28.2734 53.5112 28.3096 53.5112 28.3474V28.7418C53.5112 28.7796 53.4962 28.8158 53.4695 28.8425C53.4428 28.8692 53.4066 28.8842 53.3688 28.8842H52.1473V33.3047C52.1464 33.3422 52.1311 33.378 52.1046 33.4045C52.0781 33.431 52.0424 33.4463 52.0048 33.4472H51.5075C51.47 33.4463 51.4342 33.431 51.4077 33.4045C51.3812 33.378 51.3659 33.3422 51.365 33.3047V28.8952H51.3661ZM56.5722 28.3474C56.573 28.3099 56.5883 28.2742 56.6148 28.2476C56.6413 28.2211 56.6771 28.2058 56.7146 28.205H57.2109C57.2486 28.205 57.2848 28.22 57.3116 28.2467C57.3383 28.2734 57.3533 28.3096 57.3533 28.3474V30.4421H60.114V28.3474C60.114 28.3098 60.1289 28.2738 60.1554 28.2471C60.1818 28.2204 60.2178 28.2053 60.2554 28.205H60.7527C60.8294 28.2072 60.8919 28.2707 60.8952 28.3474V33.3168C60.8943 33.3543 60.879 33.39 60.8525 33.4166C60.826 33.4431 60.7902 33.4584 60.7527 33.4592H60.2554C60.2176 33.4592 60.1814 33.4442 60.1547 33.4175C60.1279 33.3908 60.1129 33.3546 60.1129 33.3168V31.1476H57.3522V33.3168C57.3522 33.3546 57.3372 33.3908 57.3105 33.4175C57.2838 33.4442 57.2475 33.4592 57.2098 33.4592H56.7135C56.676 33.4584 56.6402 33.4431 56.6137 33.4166C56.5872 33.39 56.5719 33.3543 56.5711 33.3168V28.3474H56.5722ZM63.955 28.3474C63.955 28.3096 63.97 28.2734 63.9967 28.2467C64.0234 28.22 64.0597 28.205 64.0974 28.205H67.0981C67.1359 28.205 67.1721 28.22 67.1988 28.2467C67.2255 28.2734 67.2405 28.3096 67.2405 28.3474V28.7418C67.2405 28.7796 67.2255 28.8158 67.1988 28.8425C67.1721 28.8692 67.1359 28.8842 67.0981 28.8842H64.7317V30.4136H66.7355C66.8122 30.4158 66.8746 30.4793 66.8779 30.556V30.9899C66.8779 31.0276 66.8629 31.0639 66.8362 31.0906C66.8095 31.1173 66.7733 31.1323 66.7355 31.1323H64.7306V32.7449H67.097C67.1348 32.7449 67.171 32.7599 67.1977 32.7866C67.2244 32.8133 67.2394 32.8496 67.2394 32.8873V33.2817C67.2394 33.3195 67.2244 33.3557 67.1977 33.3824C67.171 33.4091 67.1348 33.4241 67.097 33.4241H64.0963C64.0776 33.4241 64.0591 33.4205 64.0418 33.4133C64.0245 33.4061 64.0088 33.3957 63.9956 33.3824C63.9824 33.3692 63.9719 33.3535 63.9647 33.3362C63.9576 33.319 63.9539 33.3004 63.9539 33.2817V28.3474H63.955ZM77.05 28.1152C77.7247 28.1032 78.3778 28.3534 78.8719 28.813C78.8868 28.826 78.8987 28.842 78.9069 28.8599C78.915 28.8779 78.9192 28.8974 78.9192 28.9171C78.9192 28.9368 78.915 28.9563 78.9069 28.9743C78.8987 28.9922 78.8868 29.0082 78.8719 29.0212L78.541 29.3608C78.5314 29.3774 78.5176 29.3912 78.501 29.4007C78.4843 29.4103 78.4655 29.4154 78.4463 29.4154C78.4271 29.4154 78.4082 29.4103 78.3916 29.4007C78.375 29.3912 78.3611 29.3774 78.3515 29.3608C77.9913 29.0468 77.5321 28.8696 77.0544 28.8601C76.5376 28.8601 76.042 29.0654 75.6766 29.4308C75.3112 29.7962 75.106 30.2918 75.106 30.8085C75.106 31.3253 75.3112 31.8209 75.6766 32.1863C76.042 32.5517 76.5376 32.757 77.0544 32.757C77.5288 32.7482 77.9856 32.5729 78.3438 32.2596C78.369 32.2376 78.4013 32.2254 78.4348 32.2254C78.4682 32.2254 78.5005 32.2376 78.5257 32.2596L78.8719 32.5915C78.8983 32.6182 78.9131 32.6542 78.9131 32.6918C78.9131 32.7293 78.8983 32.7654 78.8719 32.792C78.3848 33.2662 77.7298 33.5285 77.05 33.5217C76.3425 33.5074 75.6687 33.2163 75.1734 32.7109C74.6781 32.2055 74.4006 31.5261 74.4006 30.8184C74.4006 30.1107 74.6781 29.4313 75.1734 28.9259C75.6687 28.4205 76.3425 28.1294 77.05 28.1152ZM81.9909 33.25L84.2948 28.1973C84.3085 28.1752 84.3269 28.1564 84.3487 28.1422C84.3704 28.128 84.3951 28.1188 84.4208 28.1152H84.4953C84.5479 28.1217 84.5939 28.1524 84.6224 28.1973L86.9132 33.25C86.9235 33.2708 86.9282 33.294 86.9268 33.3172C86.9254 33.3404 86.918 33.3629 86.9053 33.3824C86.8925 33.4018 86.875 33.4177 86.8542 33.4283C86.8335 33.4388 86.8104 33.4439 86.7872 33.4428H86.3139C86.2766 33.445 86.2396 33.4351 86.2084 33.4146C86.1772 33.394 86.1535 33.364 86.1408 33.3288L85.6752 32.2914H83.2376C83.0875 32.6386 82.9309 32.9739 82.7797 33.3212C82.765 33.3549 82.7408 33.3837 82.7101 33.4039C82.6794 33.4241 82.6434 33.435 82.6066 33.4351H82.1333C82.1096 33.4387 82.0854 33.4359 82.0631 33.427C82.0409 33.418 82.0215 33.4032 82.0069 33.3842C81.9924 33.3651 81.9832 33.3425 81.9804 33.3187C81.9776 33.2949 81.9812 33.2708 81.9909 33.2489V33.25ZM85.3915 31.6724L84.4679 29.6171H84.4208L83.5137 31.6603H85.3915V31.6713V31.6724ZM89.9873 28.3474C89.9873 28.3096 90.0023 28.2734 90.029 28.2467C90.0557 28.22 90.0919 28.205 90.1297 28.205H92.1729C92.3858 28.203 92.597 28.2429 92.7945 28.3225C92.992 28.4021 93.1719 28.5199 93.3239 28.669C93.4759 28.8182 93.597 28.9958 93.6803 29.1917C93.7637 29.3877 93.8076 29.5981 93.8096 29.8111C93.7972 30.1454 93.6844 30.4682 93.4858 30.7375C93.2873 31.0068 93.0122 31.21 92.6965 31.3207L93.7263 33.227C93.7395 33.2488 93.7466 33.2739 93.7467 33.2994C93.7469 33.325 93.7402 33.3501 93.7273 33.3722C93.7144 33.3943 93.6958 33.4125 93.6735 33.4249C93.6512 33.4373 93.6259 33.4435 93.6003 33.4428H93.012C92.9882 33.4428 92.9648 33.4366 92.9441 33.4249C92.9234 33.4132 92.906 33.3963 92.8937 33.3759L91.8968 31.404H90.764V33.3168C90.7632 33.3543 90.7479 33.39 90.7213 33.4166C90.6948 33.4431 90.6591 33.4584 90.6216 33.4592H90.133C90.0952 33.4592 90.059 33.4442 90.0322 33.4175C90.0055 33.3908 89.9905 33.3546 89.9905 33.3168V28.3474H89.9873ZM92.1126 30.7576C92.3569 30.7536 92.5898 30.6537 92.7612 30.4795C92.9325 30.3053 93.0285 30.0707 93.0285 29.8264C93.0214 29.5881 92.922 29.362 92.7513 29.1956C92.5807 29.0292 92.352 28.9356 92.1137 28.9346H90.7771V30.7576H92.1137H92.1126ZM96.8848 28.3474C96.8848 28.3096 96.8998 28.2734 96.9265 28.2467C96.9532 28.22 96.9894 28.205 97.0272 28.205H100.029C100.066 28.2061 100.101 28.2216 100.127 28.2482C100.153 28.2748 100.167 28.3104 100.167 28.3474V28.7418C100.167 28.7796 100.152 28.8158 100.125 28.8425C100.099 28.8692 100.062 28.8842 100.025 28.8842H97.6582V30.4136H99.662C99.7387 30.4158 99.8022 30.4793 99.8044 30.556V30.9899C99.8044 31.0276 99.7894 31.0639 99.7627 31.0906C99.736 31.1173 99.6997 31.1323 99.662 31.1323H97.6582V32.7449H100.025C100.062 32.7449 100.099 32.7599 100.125 32.7866C100.152 32.8133 100.167 32.8496 100.167 32.8873V33.2817C100.167 33.3195 100.152 33.3557 100.125 33.3824C100.099 33.4091 100.062 33.4241 100.025 33.4241H97.0119C96.9741 33.4241 96.9379 33.4091 96.9112 33.3824C96.8844 33.3557 96.8694 33.3195 96.8694 33.2817V28.3474H96.8848ZM103.227 28.3474C103.227 28.3096 103.242 28.2734 103.269 28.2467C103.295 28.22 103.332 28.205 103.369 28.205H106.371C106.409 28.2053 106.445 28.2204 106.471 28.2471C106.498 28.2738 106.512 28.3098 106.512 28.3474V28.7418C106.512 28.7796 106.497 28.8158 106.471 28.8425C106.444 28.8692 106.408 28.8842 106.37 28.8842H104.004V30.4136H106.008C106.085 30.4158 106.148 30.4793 106.15 30.556V30.9899C106.15 31.0276 106.135 31.0639 106.108 31.0906C106.081 31.1173 106.045 31.1323 106.007 31.1323H104.004V32.7449H106.37C106.408 32.7449 106.444 32.7599 106.471 32.7866C106.497 32.8133 106.512 32.8496 106.512 32.8873V33.2817C106.512 33.3195 106.497 33.3557 106.471 33.3824C106.444 33.4091 106.408 33.4241 106.37 33.4241H103.368C103.331 33.4239 103.295 33.4087 103.268 33.382C103.242 33.3554 103.227 33.3193 103.227 33.2817V28.3474ZM109.572 28.3474C109.572 28.3096 109.587 28.2734 109.614 28.2467C109.641 28.22 109.677 28.205 109.715 28.205H111.758C111.971 28.203 112.182 28.2429 112.38 28.3225C112.577 28.4021 112.757 28.5199 112.909 28.669C113.061 28.8182 113.182 28.9958 113.265 29.1917C113.349 29.3877 113.393 29.5981 113.395 29.8111C113.385 30.1475 113.273 30.4732 113.075 30.745C112.876 31.0169 112.6 31.2222 112.283 31.3339L113.312 33.2379C113.326 33.2599 113.333 33.2852 113.334 33.311C113.334 33.3368 113.327 33.3622 113.314 33.3845C113.301 33.4068 113.282 33.4251 113.259 33.4375C113.237 33.4499 113.211 33.4559 113.185 33.4548H112.601C112.578 33.4548 112.554 33.4487 112.533 33.437C112.513 33.4253 112.495 33.4084 112.483 33.388L111.486 31.416H110.353V33.3288C110.353 33.3663 110.337 33.4021 110.311 33.4286C110.284 33.4551 110.248 33.4704 110.211 33.4713H109.722C109.685 33.4713 109.648 33.4563 109.622 33.4295C109.595 33.4028 109.58 33.3666 109.58 33.3288V28.3474H109.572ZM111.698 30.7576C111.942 30.7536 112.175 30.6537 112.346 30.4795C112.517 30.3053 112.613 30.0707 112.613 29.8264C112.606 29.5881 112.507 29.362 112.336 29.1956C112.166 29.0292 111.937 28.9356 111.699 28.9346H110.362V30.7576H111.699H111.698Z" stroke="white" stroke-width="0.2" mask="url(#path-2-outside-1)"/>
    <mask id="path-3-outside-2" maskUnits="userSpaceOnUse" x="119.501" y="27.1731" width="38" height="7" fill="black">
        <rect fill="white" x="119.501" y="27.1731" width="38" height="7"/>
        <path d="M120.502 28.3473C120.502 28.3095 120.517 28.2733 120.544 28.2465C120.57 28.2198 120.607 28.2048 120.644 28.2048H123.645C123.683 28.2048 123.719 28.2198 123.746 28.2465C123.773 28.2733 123.788 28.3095 123.788 28.3473V28.7416C123.788 28.7794 123.773 28.8156 123.746 28.8424C123.719 28.8691 123.683 28.8841 123.645 28.8841H121.279V30.4134H123.283C123.359 30.4156 123.422 30.4792 123.425 30.5559V30.9897C123.425 31.0275 123.41 31.0637 123.383 31.0904C123.357 31.1171 123.32 31.1321 123.283 31.1321H121.274V32.7448H123.641C123.679 32.7448 123.715 32.7598 123.742 32.7865C123.768 32.8132 123.783 32.8494 123.783 32.8872V33.2816C123.783 33.3193 123.768 33.3556 123.742 33.3823C123.715 33.409 123.679 33.424 123.641 33.424H120.643C120.606 33.424 120.569 33.409 120.543 33.3823C120.516 33.3556 120.501 33.3193 120.501 33.2816V28.3473H120.502ZM128.422 30.7487L126.935 28.3823C126.921 28.3611 126.913 28.3362 126.912 28.3106C126.911 28.2849 126.918 28.2596 126.931 28.2377C126.944 28.2157 126.964 28.1981 126.987 28.1868C127.01 28.1756 127.036 28.1712 127.061 28.1742H127.7C127.725 28.1741 127.749 28.1801 127.771 28.1916C127.793 28.203 127.812 28.2196 127.826 28.2399L128.883 30.0355L129.957 28.241C129.969 28.2207 129.986 28.204 130.006 28.1923C130.027 28.1806 130.05 28.1743 130.074 28.1742H130.713C130.738 28.1709 130.764 28.1751 130.787 28.1863C130.81 28.1975 130.83 28.2151 130.843 28.2371C130.857 28.2591 130.864 28.2845 130.863 28.3103C130.862 28.336 130.854 28.3611 130.84 28.3823L129.352 30.7487L130.89 33.2334C130.905 33.2545 130.913 33.2796 130.914 33.3054C130.915 33.3312 130.908 33.3568 130.895 33.3789C130.882 33.4011 130.862 33.4189 130.839 33.4302C130.816 33.4415 130.79 33.4458 130.764 33.4426H130.2C130.175 33.4425 130.151 33.4364 130.129 33.4247C130.107 33.4131 130.088 33.3963 130.074 33.3758L128.891 31.4553L127.707 33.3758C127.693 33.3956 127.674 33.4119 127.652 33.4235C127.63 33.435 127.606 33.4416 127.581 33.4426H127.001C126.975 33.4455 126.949 33.4411 126.926 33.43C126.903 33.419 126.883 33.4016 126.869 33.38C126.856 33.3584 126.848 33.3333 126.848 33.3076C126.847 33.2818 126.854 33.2565 126.867 33.2345L128.422 30.7487ZM133.982 28.3473C133.982 28.3095 133.997 28.2733 134.023 28.2465C134.05 28.2198 134.086 28.2048 134.124 28.2048H135.835C136.279 28.2048 136.705 28.3813 137.019 28.6953C137.333 29.0093 137.51 29.4353 137.51 29.8794C137.51 30.3235 137.333 30.7494 137.019 31.0634C136.705 31.3775 136.279 31.5539 135.835 31.5539H134.747V33.3166C134.747 33.3541 134.731 33.3899 134.705 33.4164C134.678 33.4429 134.642 33.4582 134.605 33.459H134.116C134.079 33.459 134.042 33.444 134.016 33.4173C133.989 33.3906 133.974 33.3544 133.974 33.3166V28.3473H133.982ZM135.793 30.8166C135.919 30.8166 136.043 30.7916 136.16 30.7431C136.276 30.6946 136.382 30.6236 136.47 30.534C136.559 30.4445 136.629 30.3383 136.677 30.2215C136.724 30.1047 136.748 29.9797 136.747 29.8536C136.744 29.7318 136.716 29.6118 136.667 29.5006C136.617 29.3893 136.546 29.2891 136.457 29.2055C136.368 29.122 136.264 29.0569 136.15 29.0139C136.036 28.971 135.914 28.951 135.793 28.9553H134.755V30.8166H135.793ZM140.57 28.3473C140.57 28.3095 140.585 28.2733 140.612 28.2465C140.639 28.2198 140.675 28.2048 140.713 28.2048H143.714C143.752 28.2051 143.788 28.2203 143.814 28.2469C143.841 28.2736 143.856 28.3097 143.856 28.3473V28.7416C143.856 28.7794 143.841 28.8156 143.814 28.8424C143.787 28.8691 143.751 28.8841 143.713 28.8841H141.347V30.4134H143.352C143.428 30.4156 143.491 30.4792 143.493 30.5559V30.9897C143.493 31.0275 143.478 31.0637 143.451 31.0904C143.425 31.1171 143.388 31.1321 143.351 31.1321H141.347V32.7448H143.713C143.751 32.7448 143.787 32.7598 143.814 32.7865C143.841 32.8132 143.856 32.8494 143.856 32.8872V33.2816C143.856 33.3193 143.841 33.3556 143.814 33.3823C143.787 33.409 143.751 33.424 143.713 33.424H140.712C140.674 33.4237 140.638 33.4086 140.612 33.3819C140.585 33.3552 140.57 33.3192 140.57 33.2816V28.3473ZM146.916 28.3473C146.916 28.3095 146.931 28.2733 146.957 28.2465C146.984 28.2198 147.02 28.2048 147.058 28.2048H149.113C149.326 28.2028 149.537 28.2427 149.735 28.3224C149.932 28.402 150.112 28.5197 150.264 28.6689C150.416 28.818 150.537 28.9956 150.621 29.1916C150.704 29.3875 150.748 29.598 150.75 29.8109C150.74 30.1475 150.629 30.4732 150.43 30.7451C150.231 31.017 149.955 31.2222 149.637 31.3337L150.667 33.2377C150.68 33.2597 150.687 33.2848 150.688 33.3105C150.688 33.3363 150.681 33.3616 150.669 33.3838C150.656 33.4061 150.637 33.4244 150.614 33.4369C150.592 33.4494 150.566 33.4555 150.541 33.4547H149.941C149.918 33.4547 149.894 33.4485 149.873 33.4368C149.853 33.4251 149.835 33.4082 149.823 33.3878L148.825 31.4159H147.693V33.3287C147.693 33.3662 147.677 33.4019 147.651 33.4285C147.624 33.455 147.588 33.4703 147.551 33.4711H147.062C147.025 33.4711 146.988 33.4561 146.962 33.4294C146.935 33.4027 146.92 33.3664 146.92 33.3287V28.3473H146.916ZM149.041 30.7574C149.285 30.7534 149.518 30.6535 149.689 30.4793C149.861 30.3051 149.957 30.0706 149.957 29.8262C149.95 29.588 149.85 29.3618 149.68 29.1954C149.509 29.0291 149.28 28.9355 149.042 28.9345H147.705V30.7574H149.042H149.041ZM155.175 28.895H153.952C153.914 28.895 153.878 28.88 153.852 28.8533C153.825 28.8266 153.81 28.7904 153.81 28.7526V28.3473C153.81 28.3095 153.825 28.2733 153.852 28.2465C153.878 28.2198 153.914 28.2048 153.952 28.2048H157.177C157.215 28.2048 157.251 28.2198 157.278 28.2465C157.305 28.2733 157.32 28.3095 157.32 28.3473V28.7416C157.32 28.7794 157.305 28.8156 157.278 28.8424C157.251 28.8691 157.215 28.8841 157.177 28.8841H155.955V33.3046C155.954 33.3421 155.939 33.3778 155.912 33.4044C155.886 33.4309 155.85 33.4462 155.812 33.447H155.316C155.279 33.4462 155.243 33.4309 155.216 33.4044C155.19 33.3778 155.175 33.3421 155.174 33.3046V28.895H155.175Z"/>
    </mask>
    <path d="M120.502 28.3473C120.502 28.3095 120.517 28.2733 120.544 28.2465C120.57 28.2198 120.607 28.2048 120.644 28.2048H123.645C123.683 28.2048 123.719 28.2198 123.746 28.2465C123.773 28.2733 123.788 28.3095 123.788 28.3473V28.7416C123.788 28.7794 123.773 28.8156 123.746 28.8424C123.719 28.8691 123.683 28.8841 123.645 28.8841H121.279V30.4134H123.283C123.359 30.4156 123.422 30.4792 123.425 30.5559V30.9897C123.425 31.0275 123.41 31.0637 123.383 31.0904C123.357 31.1171 123.32 31.1321 123.283 31.1321H121.274V32.7448H123.641C123.679 32.7448 123.715 32.7598 123.742 32.7865C123.768 32.8132 123.783 32.8494 123.783 32.8872V33.2816C123.783 33.3193 123.768 33.3556 123.742 33.3823C123.715 33.409 123.679 33.424 123.641 33.424H120.643C120.606 33.424 120.569 33.409 120.543 33.3823C120.516 33.3556 120.501 33.3193 120.501 33.2816V28.3473H120.502ZM128.422 30.7487L126.935 28.3823C126.921 28.3611 126.913 28.3362 126.912 28.3106C126.911 28.2849 126.918 28.2596 126.931 28.2377C126.944 28.2157 126.964 28.1981 126.987 28.1868C127.01 28.1756 127.036 28.1712 127.061 28.1742H127.7C127.725 28.1741 127.749 28.1801 127.771 28.1916C127.793 28.203 127.812 28.2196 127.826 28.2399L128.883 30.0355L129.957 28.241C129.969 28.2207 129.986 28.204 130.006 28.1923C130.027 28.1806 130.05 28.1743 130.074 28.1742H130.713C130.738 28.1709 130.764 28.1751 130.787 28.1863C130.81 28.1975 130.83 28.2151 130.843 28.2371C130.857 28.2591 130.864 28.2845 130.863 28.3103C130.862 28.336 130.854 28.3611 130.84 28.3823L129.352 30.7487L130.89 33.2334C130.905 33.2545 130.913 33.2796 130.914 33.3054C130.915 33.3312 130.908 33.3568 130.895 33.3789C130.882 33.4011 130.862 33.4189 130.839 33.4302C130.816 33.4415 130.79 33.4458 130.764 33.4426H130.2C130.175 33.4425 130.151 33.4364 130.129 33.4247C130.107 33.4131 130.088 33.3963 130.074 33.3758L128.891 31.4553L127.707 33.3758C127.693 33.3956 127.674 33.4119 127.652 33.4235C127.63 33.435 127.606 33.4416 127.581 33.4426H127.001C126.975 33.4455 126.949 33.4411 126.926 33.43C126.903 33.419 126.883 33.4016 126.869 33.38C126.856 33.3584 126.848 33.3333 126.848 33.3076C126.847 33.2818 126.854 33.2565 126.867 33.2345L128.422 30.7487ZM133.982 28.3473C133.982 28.3095 133.997 28.2733 134.023 28.2465C134.05 28.2198 134.086 28.2048 134.124 28.2048H135.835C136.279 28.2048 136.705 28.3813 137.019 28.6953C137.333 29.0093 137.51 29.4353 137.51 29.8794C137.51 30.3235 137.333 30.7494 137.019 31.0634C136.705 31.3775 136.279 31.5539 135.835 31.5539H134.747V33.3166C134.747 33.3541 134.731 33.3899 134.705 33.4164C134.678 33.4429 134.642 33.4582 134.605 33.459H134.116C134.079 33.459 134.042 33.444 134.016 33.4173C133.989 33.3906 133.974 33.3544 133.974 33.3166V28.3473H133.982ZM135.793 30.8166C135.919 30.8166 136.043 30.7916 136.16 30.7431C136.276 30.6946 136.382 30.6236 136.47 30.534C136.559 30.4445 136.629 30.3383 136.677 30.2215C136.724 30.1047 136.748 29.9797 136.747 29.8536C136.744 29.7318 136.716 29.6118 136.667 29.5006C136.617 29.3893 136.546 29.2891 136.457 29.2055C136.368 29.122 136.264 29.0569 136.15 29.0139C136.036 28.971 135.914 28.951 135.793 28.9553H134.755V30.8166H135.793ZM140.57 28.3473C140.57 28.3095 140.585 28.2733 140.612 28.2465C140.639 28.2198 140.675 28.2048 140.713 28.2048H143.714C143.752 28.2051 143.788 28.2203 143.814 28.2469C143.841 28.2736 143.856 28.3097 143.856 28.3473V28.7416C143.856 28.7794 143.841 28.8156 143.814 28.8424C143.787 28.8691 143.751 28.8841 143.713 28.8841H141.347V30.4134H143.352C143.428 30.4156 143.491 30.4792 143.493 30.5559V30.9897C143.493 31.0275 143.478 31.0637 143.451 31.0904C143.425 31.1171 143.388 31.1321 143.351 31.1321H141.347V32.7448H143.713C143.751 32.7448 143.787 32.7598 143.814 32.7865C143.841 32.8132 143.856 32.8494 143.856 32.8872V33.2816C143.856 33.3193 143.841 33.3556 143.814 33.3823C143.787 33.409 143.751 33.424 143.713 33.424H140.712C140.674 33.4237 140.638 33.4086 140.612 33.3819C140.585 33.3552 140.57 33.3192 140.57 33.2816V28.3473ZM146.916 28.3473C146.916 28.3095 146.931 28.2733 146.957 28.2465C146.984 28.2198 147.02 28.2048 147.058 28.2048H149.113C149.326 28.2028 149.537 28.2427 149.735 28.3224C149.932 28.402 150.112 28.5197 150.264 28.6689C150.416 28.818 150.537 28.9956 150.621 29.1916C150.704 29.3875 150.748 29.598 150.75 29.8109C150.74 30.1475 150.629 30.4732 150.43 30.7451C150.231 31.017 149.955 31.2222 149.637 31.3337L150.667 33.2377C150.68 33.2597 150.687 33.2848 150.688 33.3105C150.688 33.3363 150.681 33.3616 150.669 33.3838C150.656 33.4061 150.637 33.4244 150.614 33.4369C150.592 33.4494 150.566 33.4555 150.541 33.4547H149.941C149.918 33.4547 149.894 33.4485 149.873 33.4368C149.853 33.4251 149.835 33.4082 149.823 33.3878L148.825 31.4159H147.693V33.3287C147.693 33.3662 147.677 33.4019 147.651 33.4285C147.624 33.455 147.588 33.4703 147.551 33.4711H147.062C147.025 33.4711 146.988 33.4561 146.962 33.4294C146.935 33.4027 146.92 33.3664 146.92 33.3287V28.3473H146.916ZM149.041 30.7574C149.285 30.7534 149.518 30.6535 149.689 30.4793C149.861 30.3051 149.957 30.0706 149.957 29.8262C149.95 29.588 149.85 29.3618 149.68 29.1954C149.509 29.0291 149.28 28.9355 149.042 28.9345H147.705V30.7574H149.042H149.041ZM155.175 28.895H153.952C153.914 28.895 153.878 28.88 153.852 28.8533C153.825 28.8266 153.81 28.7904 153.81 28.7526V28.3473C153.81 28.3095 153.825 28.2733 153.852 28.2465C153.878 28.2198 153.914 28.2048 153.952 28.2048H157.177C157.215 28.2048 157.251 28.2198 157.278 28.2465C157.305 28.2733 157.32 28.3095 157.32 28.3473V28.7416C157.32 28.7794 157.305 28.8156 157.278 28.8424C157.251 28.8691 157.215 28.8841 157.177 28.8841H155.955V33.3046C155.954 33.3421 155.939 33.3778 155.912 33.4044C155.886 33.4309 155.85 33.4462 155.812 33.447H155.316C155.279 33.4462 155.243 33.4309 155.216 33.4044C155.19 33.3778 155.175 33.3421 155.174 33.3046V28.895H155.175Z" fill="white"/>
    <path d="M120.502 28.3473C120.502 28.3095 120.517 28.2733 120.544 28.2465C120.57 28.2198 120.607 28.2048 120.644 28.2048H123.645C123.683 28.2048 123.719 28.2198 123.746 28.2465C123.773 28.2733 123.788 28.3095 123.788 28.3473V28.7416C123.788 28.7794 123.773 28.8156 123.746 28.8424C123.719 28.8691 123.683 28.8841 123.645 28.8841H121.279V30.4134H123.283C123.359 30.4156 123.422 30.4792 123.425 30.5559V30.9897C123.425 31.0275 123.41 31.0637 123.383 31.0904C123.357 31.1171 123.32 31.1321 123.283 31.1321H121.274V32.7448H123.641C123.679 32.7448 123.715 32.7598 123.742 32.7865C123.768 32.8132 123.783 32.8494 123.783 32.8872V33.2816C123.783 33.3193 123.768 33.3556 123.742 33.3823C123.715 33.409 123.679 33.424 123.641 33.424H120.643C120.606 33.424 120.569 33.409 120.543 33.3823C120.516 33.3556 120.501 33.3193 120.501 33.2816V28.3473H120.502ZM128.422 30.7487L126.935 28.3823C126.921 28.3611 126.913 28.3362 126.912 28.3106C126.911 28.2849 126.918 28.2596 126.931 28.2377C126.944 28.2157 126.964 28.1981 126.987 28.1868C127.01 28.1756 127.036 28.1712 127.061 28.1742H127.7C127.725 28.1741 127.749 28.1801 127.771 28.1916C127.793 28.203 127.812 28.2196 127.826 28.2399L128.883 30.0355L129.957 28.241C129.969 28.2207 129.986 28.204 130.006 28.1923C130.027 28.1806 130.05 28.1743 130.074 28.1742H130.713C130.738 28.1709 130.764 28.1751 130.787 28.1863C130.81 28.1975 130.83 28.2151 130.843 28.2371C130.857 28.2591 130.864 28.2845 130.863 28.3103C130.862 28.336 130.854 28.3611 130.84 28.3823L129.352 30.7487L130.89 33.2334C130.905 33.2545 130.913 33.2796 130.914 33.3054C130.915 33.3312 130.908 33.3568 130.895 33.3789C130.882 33.4011 130.862 33.4189 130.839 33.4302C130.816 33.4415 130.79 33.4458 130.764 33.4426H130.2C130.175 33.4425 130.151 33.4364 130.129 33.4247C130.107 33.4131 130.088 33.3963 130.074 33.3758L128.891 31.4553L127.707 33.3758C127.693 33.3956 127.674 33.4119 127.652 33.4235C127.63 33.435 127.606 33.4416 127.581 33.4426H127.001C126.975 33.4455 126.949 33.4411 126.926 33.43C126.903 33.419 126.883 33.4016 126.869 33.38C126.856 33.3584 126.848 33.3333 126.848 33.3076C126.847 33.2818 126.854 33.2565 126.867 33.2345L128.422 30.7487ZM133.982 28.3473C133.982 28.3095 133.997 28.2733 134.023 28.2465C134.05 28.2198 134.086 28.2048 134.124 28.2048H135.835C136.279 28.2048 136.705 28.3813 137.019 28.6953C137.333 29.0093 137.51 29.4353 137.51 29.8794C137.51 30.3235 137.333 30.7494 137.019 31.0634C136.705 31.3775 136.279 31.5539 135.835 31.5539H134.747V33.3166C134.747 33.3541 134.731 33.3899 134.705 33.4164C134.678 33.4429 134.642 33.4582 134.605 33.459H134.116C134.079 33.459 134.042 33.444 134.016 33.4173C133.989 33.3906 133.974 33.3544 133.974 33.3166V28.3473H133.982ZM135.793 30.8166C135.919 30.8166 136.043 30.7916 136.16 30.7431C136.276 30.6946 136.382 30.6236 136.47 30.534C136.559 30.4445 136.629 30.3383 136.677 30.2215C136.724 30.1047 136.748 29.9797 136.747 29.8536C136.744 29.7318 136.716 29.6118 136.667 29.5006C136.617 29.3893 136.546 29.2891 136.457 29.2055C136.368 29.122 136.264 29.0569 136.15 29.0139C136.036 28.971 135.914 28.951 135.793 28.9553H134.755V30.8166H135.793ZM140.57 28.3473C140.57 28.3095 140.585 28.2733 140.612 28.2465C140.639 28.2198 140.675 28.2048 140.713 28.2048H143.714C143.752 28.2051 143.788 28.2203 143.814 28.2469C143.841 28.2736 143.856 28.3097 143.856 28.3473V28.7416C143.856 28.7794 143.841 28.8156 143.814 28.8424C143.787 28.8691 143.751 28.8841 143.713 28.8841H141.347V30.4134H143.352C143.428 30.4156 143.491 30.4792 143.493 30.5559V30.9897C143.493 31.0275 143.478 31.0637 143.451 31.0904C143.425 31.1171 143.388 31.1321 143.351 31.1321H141.347V32.7448H143.713C143.751 32.7448 143.787 32.7598 143.814 32.7865C143.841 32.8132 143.856 32.8494 143.856 32.8872V33.2816C143.856 33.3193 143.841 33.3556 143.814 33.3823C143.787 33.409 143.751 33.424 143.713 33.424H140.712C140.674 33.4237 140.638 33.4086 140.612 33.3819C140.585 33.3552 140.57 33.3192 140.57 33.2816V28.3473ZM146.916 28.3473C146.916 28.3095 146.931 28.2733 146.957 28.2465C146.984 28.2198 147.02 28.2048 147.058 28.2048H149.113C149.326 28.2028 149.537 28.2427 149.735 28.3224C149.932 28.402 150.112 28.5197 150.264 28.6689C150.416 28.818 150.537 28.9956 150.621 29.1916C150.704 29.3875 150.748 29.598 150.75 29.8109C150.74 30.1475 150.629 30.4732 150.43 30.7451C150.231 31.017 149.955 31.2222 149.637 31.3337L150.667 33.2377C150.68 33.2597 150.687 33.2848 150.688 33.3105C150.688 33.3363 150.681 33.3616 150.669 33.3838C150.656 33.4061 150.637 33.4244 150.614 33.4369C150.592 33.4494 150.566 33.4555 150.541 33.4547H149.941C149.918 33.4547 149.894 33.4485 149.873 33.4368C149.853 33.4251 149.835 33.4082 149.823 33.3878L148.825 31.4159H147.693V33.3287C147.693 33.3662 147.677 33.4019 147.651 33.4285C147.624 33.455 147.588 33.4703 147.551 33.4711H147.062C147.025 33.4711 146.988 33.4561 146.962 33.4294C146.935 33.4027 146.92 33.3664 146.92 33.3287V28.3473H146.916ZM149.041 30.7574C149.285 30.7534 149.518 30.6535 149.689 30.4793C149.861 30.3051 149.957 30.0706 149.957 29.8262C149.95 29.588 149.85 29.3618 149.68 29.1954C149.509 29.0291 149.28 28.9355 149.042 28.9345H147.705V30.7574H149.042H149.041ZM155.175 28.895H153.952C153.914 28.895 153.878 28.88 153.852 28.8533C153.825 28.8266 153.81 28.7904 153.81 28.7526V28.3473C153.81 28.3095 153.825 28.2733 153.852 28.2465C153.878 28.2198 153.914 28.2048 153.952 28.2048H157.177C157.215 28.2048 157.251 28.2198 157.278 28.2465C157.305 28.2733 157.32 28.3095 157.32 28.3473V28.7416C157.32 28.7794 157.305 28.8156 157.278 28.8424C157.251 28.8691 157.215 28.8841 157.177 28.8841H155.955V33.3046C155.954 33.3421 155.939 33.3778 155.912 33.4044C155.886 33.4309 155.85 33.4462 155.812 33.447H155.316C155.279 33.4462 155.243 33.4309 155.216 33.4044C155.19 33.3778 155.175 33.3421 155.174 33.3046V28.895H155.175Z" stroke="white" stroke-width="0.2" mask="url(#path-3-outside-2)"/>
    <path d="M0 18.45H3.88912V32.266H32.2391V27.2323H7.86267L18.3001 13.597H0V0H36V17.4375H32.2899V3.95045H3.8352V8.77474H27.999L17.7182 22.253H36V36H0V18.45Z" fill="white"/>
</svg>

